<svg xmlns="http://www.w3.org/2000/svg" width="3080" height="3070.969" viewBox="0 0 3080 3070.969">
  <defs>
    <style>
      .cls-1 {
        fill: #ffffffff;
        fill-rule: evenodd;
      }
    </style>
  </defs>
  <path id="Shape_316_1" data-name="Shape 316 1" class="cls-1" d="M991.279,942.836H2336.12c29.37,0,93.41-6.237,113.16,4.352,6.13,23.163,2.18,58.882,2.18,85.952V2034.06c0,16.38,5.7,61.05-4.35,68.54-12.28,7.4-72.86,2.18-92.49,2.18H2114.16c-18.28,0-91.37,3.81-97.93-4.36-9.86-18.43-3.26-130.57-3.26-162.1V1599.96c0-39.32,7.07-123.93-2.18-152.31-26.16-12.06-82.04-4.35-116.42-4.35q-147.96-.555-295.95-1.09c-18.98-2.84-116.62-1.57-121.86,5.44-6.65,8.88-2.18,34.68-2.18,50.04v719.14c7.36,14.66,38.44,9.8,59.84,9.8h835.63c25.96,0,58.94-2.11,78.35,2.17,14.76,33.12-2.98,75.46,3.26,116.41,4.33,28.46-4.91,60.89,0,93.57,3.98,26.47,0,53.79,0,83.77V3871.62c0,42.23,6.9,96.98-2.18,134.91-20.97,9.62-85.62,3.26-117.51,3.26H2052.14c-213.23.03-355.94-58.32-493.98-131.64-216.89-115.2-379.26-293.81-483.1-522.22-33.87-74.5-60.79-157.07-80.517-246.97-8.12-37-6.317-67.79-13.056-107.71-4.744-28.09-16.762-119.88-3.265-144.7,30.208-8.44,83.038-2.17,120.778-2.17h255.69c24,0,110.23-4.64,117.51,5.44,10.18,17.25-.4,58.22,3.27,79.42,9.19,53.07,13.83,101.93,28.29,147.96,44.52,141.71,139.38,256.65,252.43,330.74l69.63,36.99c25.04,14.46,142.97,67.8,186.06,43.52q0.54-281.2,1.09-562.47V2792.36c0-20.49,4.06-50.83-3.26-63.1-25.91-6.24-57.48-2.17-89.23-2.17q-77.235.54-154.5,1.09-266.55,1.08-533.15,2.17H1040.24c-16.87,0-57.22,5.31-64.194-5.44q-0.543-243.675-1.088-487.4,0.545-644.55,1.088-1289.234l5.441-3.264Zm1605.981,0H2848.6c60.04-.006,123.22-2.075,175.18,6.528,44.09,7.3,79.25,3.912,119.69,13.055,430.11,97.261,752.07,390.471,868.27,799.651,14.6,51.41,22.93,106.49,32.64,161.02,5.35,30.03,3.07,60.99,7.62,88.12q-0.54,996.465-1.09,1993.14c-5.9,9.27-92.81,5.44-113.16,5.44H3662.47c-32.45,0-87.84,7.64-107.71-5.44-10.16-60.82-2.18-137.35-2.18-202.36q0.54-25.56,1.09-51.13-0.555-352.47-1.09-705v-235c0-19.14,6.58-70.13-4.35-77.24-13.73-9.19-86.46-3.27-109.9-3.27H3178.29c-28.44,0-82.48-7.76-102.28,4.35q-0.555,461.79-1.09,923.68v248.05c0.02,29.76,8.3,80.34-4.35,102.27q-140.355.54-280.72,1.09-103.905-.54-207.82-1.09-2.175-2.715-4.36-5.44c-7.39-16.19-2.17-51.14-2.17-71.8V1023.34c0-24.113-2.72-54.621,2.17-75.064,1.82-1.088,3.63-2.176,5.45-3.264Zm484.19,520.044c-14.91,21.87-6.53,123.06-6.53,163.19,0,145.85.01,285.95,0,421.04q0.54,73.44,1.09,146.88c2.21,14.59-5.37,28.94,5.44,35.9q180.06,1.095,360.15,2.18c21.61,0.69,103.53,2.43,109.89-7.62,5.43-8.76,1.09-60.37,1.09-77.24,0-73.19,3.49-148.07-14.15-206.72-10.73-35.68-12.12-66.64-26.11-99-56.77-131.37-144.26-244.2-266.57-310.07-44.99-24.22-86.33-45.33-142.54-62.01C3095.52,1467.12,3093.13,1463.09,3081.45,1462.88Z" transform="translate(-972 -941.031)"/>
</svg>
